# xmcd
#
# Track frame offsets: 
#        150
#        17407
#        28313
#        50097
#        64852
#        80214
#        97295
#        116242
#        130412
#        140959
#        152657
#        168927
#        179037
#        189115
#
# Disc length: 2672 seconds
#
# Revision: 0
# Processed by: cddbd v1.5.1PL0 Copyright (c) Steve Scherf et al.
# Submitted via: ExactAudioCopy v0.95a5
#
DISCID=d40a6e0e
DTITLE=Reinhard mey - Live CD 2
DYEAR=2003
DGENRE=A Cappella
TTITLE0=Komm, giess mein Glas noch einmal ein
TTITLE1=Hauptbahnhof Hamm
TTITLE2=Die Ballade vom Pfeifer
TTITLE3=Abgesang
TTITLE4=Manchmal, da fallen mir Bilder ein
TTITLE5=Die Ballade vom sozialen Aufstieg des Fleischermeisters Fred K
TTITLE5=asulzke
TTITLE6=Kaspar
TTITLE7=Abscheuliches Lied für abscheuliche Leute
TTITLE8=Approche ton fauteuil du mien
TTITLE9=Vertreterbesuch
TTITLE10=Diplomatenjagd
TTITLE11=Trilogie auf Frau Pohl, 1. Teil
TTITLE12=Trilogie auf Frau Pohl, 2. Teil
TTITLE13=Trilogie auf Frau Pohl, 3. Teil
EXTD=
EXTT0=
EXTT1=
EXTT2=
EXTT3=
EXTT4=
EXTT5=
EXTT6=
EXTT7=
EXTT8=
EXTT9=
EXTT10=
EXTT11=
EXTT12=
EXTT13=
PLAYORDER=
